<svg xmlns="http://www.w3.org/2000/svg" viewBox="0 0 376.33 76.3"><defs><style>.cls-1{fill:#ff8f8f;}</style></defs><title>bg-button</title><g id="Layer_2" data-name="Layer 2"><g id="Layer_1-2" data-name="Layer 1"><polygon class="cls-1" points="326.66 0 256.72 76.3 270.29 76.3 340.23 0 326.66 0"/><polygon class="cls-1" points="344.17 0 274.15 76.3 280.94 76.3 350.96 0 344.17 0"/><polygon class="cls-1" points="358.02 0 288.12 76.3 291.51 76.3 361.41 0 358.02 0"/><polygon class="cls-1" points="374.98 0 305.02 76.3 306.38 76.3 376.33 0 374.98 0"/><polygon class="cls-1" points="324.94 0 256.72 0 256.72 74.42 324.94 0"/><polygon class="cls-1" points="255 76.3 256.72 76.3 256.72 74.42 255 76.3"/><rect class="cls-1" x="116.53" y="0.15" width="141" height="76"/><polygon class="cls-1" points="49.67 76.3 119.61 0 106.04 0 36.1 76.3 49.67 76.3"/><polygon class="cls-1" points="32.16 76.3 102.18 0 95.39 0 25.37 76.3 32.16 76.3"/><polygon class="cls-1" points="18.31 76.3 88.21 0 84.82 0 14.92 76.3 18.31 76.3"/><polygon class="cls-1" points="1.36 76.3 71.31 0 69.95 0 0 76.3 1.36 76.3"/><polygon class="cls-1" points="51.39 76.3 119.61 76.3 119.61 1.88 51.39 76.3"/><polygon class="cls-1" points="121.33 0 119.61 0 119.61 1.88 121.33 0"/></g></g></svg>